PathFileType	4	(X/Y/Z)	8_2_69_p0_0-290.trc
DataRate	CameraRate	NumFrames	NumMarkers	Units	OrigDataRate	OrigDataStartFrame	OrigNumFrames
59.0	59.0	6	27	m	59.0	181	291
Frame#	Time	RHip			RKnee			RAnkle			RBigToe			RSmallToe			RHeel			LHip			LKnee			LAnkle			LBigToe			LSmallToe			LHeel			Neck			Head			Nose			RShoulder			RElbow			RWrist			RThumb			RIndex			RPinky			LShoulder			LElbow			LWrist			LThumb			LIndex			LPinky			
		X1	Y1	Z1	X2	Y2	Z2	X3	Y3	Z3	X4	Y4	Z4	X5	Y5	Z5	X6	Y6	Z6	X7	Y7	Z7	X8	Y8	Z8	X9	Y9	Z9	X10	Y10	Z10	X11	Y11	Z11	X12	Y12	Z12	X13	Y13	Z13	X14	Y14	Z14	X15	Y15	Z15	X16	Y16	Z16	X17	Y17	Z17	X18	Y18	Z18	X19	Y19	Z19	X20	Y20	Z20	X21	Y21	Z21	X22	Y22	Z22	X23	Y23	Z23	X24	Y24	Z24	X25	Y25	Z25	X26	Y26	Z26	X27	Y27	Z27	
181	3.0677966101694913	0.21648582168602304	0.6913704470690895	0.8524406271274788	0.25590338985887445	0.7289693368344853	1.276260401338985	0.2617028173130361	0.8738604779794423	1.6971433009611	0.21902895814744497	0.682416210299573	1.7627007976983802	0.2875090902966202	0.7471228754070842	1.7688107091269099	0.2457087176378135	0.954247591723243	1.7499610784003061	0.0037139482313784124	0.691876321837989	0.858123990620433	0.02960202607243478	0.7333171218190062	1.2818042964415355	0.049004610510576724	0.8790544571519885	1.7009992084549144	0.025684413537056763	0.7606277309093845	1.7926268105813936	-0.013806511189497408	0.7471637804338954	1.750491862315249	0.0679032322877462	0.9839659037124499	1.7606921380628404	0.0566978247478316	0.46019487805332887	0.2961285937079857	0.07687255071098026	0.23539927181230372	0.06922396951632555	0.07559516302721046	0.2718551065145917	0.23838532483505112	0.22205902063672994	0.4282091617859628	0.32970196868473467	0.25356669989612257	0.4625703879560691	0.5683487483694165	0.25749388883732055	0.20947802027641077	0.7531785333727551	0.24638911677347494	0.05418125647793665	0.8064343017955236	0.2512464644443093	0.04014453786715026	0.8195875424982745	0.25955737838961074	0.18036310891723845	0.8364251209977446	-0.10804576481606473	0.5224968193843034	0.3460155646291731	-0.10407831591898051	0.6237632692254779	0.6176805761983712	-0.04485742803345738	0.5130412260250002	0.8367499942516228	0.002348197196707075	0.48459322159477314	0.9178735289058447	-0.023125674697689308	0.44158759703046124	0.9496716989629415	-0.03269023033627084	0.4956307095395092	0.9584113133338333
182	3.0847457627118646	0.21652721895198826	0.6914235985645382	0.8525365493105822	0.2558725315960951	0.7290152335653096	1.2762829320725335	0.2617172941587891	0.8738372905145646	1.6971607153556136	0.2188912885257022	0.6825011760914044	1.762586245464022	0.28749433275139114	0.7460132542326189	1.7726324404158307	0.24561247203009878	0.9541220104489866	1.7498424459554316	0.0038721129365976307	0.6917612374083336	0.8618983343635804	0.02899619871104271	0.7303664388039789	1.2767479105478778	0.0489055175306144	0.8788979697303985	1.701001802849771	0.025657366475631844	0.7604869956290725	1.7926333050378593	-0.016422252029789624	0.7319641268511013	1.7451236611040102	0.06786489825417268	0.9841283642634054	1.7608862221921282	0.05684657310121601	0.46186553463134117	0.2996460951199646	0.0767746503485911	0.2353154639675245	0.06927218977679377	0.07558084654697797	0.27162777099008223	0.23835535804745892	0.22177685213590312	0.4288007137590306	0.33316491822498173	0.253492459770312	0.4631715705302145	0.568164223304459	0.25759945846001403	0.209468812998115	0.753184640306478	0.24650856486966763	0.054040625081320307	0.8064432837980979	0.2518486696254627	0.041570519973345044	0.8227968113348857	0.25964720463654895	0.1810163764991194	0.8339460896097104	-0.09901042504094953	0.5117080271966219	0.3469082505420894	-0.10403140070698325	0.6237005643959022	0.6176000674085756	-0.04491086776506476	0.5130973526661944	0.8367488950863969	2.8946681261895536e-05	0.47483676286009413	0.9202883726622161	-0.02326450960341937	0.4416411860854957	0.9497917157738501	-0.03319298388512163	0.49673183602044985	0.9546380017116531
183	3.1016949152542375	0.2165272869161792	0.6912524912350568	0.8526055126729273	0.2558809433149958	0.7290171541556414	1.276318305976438	0.2617431294428323	0.8736534526761973	1.6970585809910939	0.2188972673225639	0.6825616319623639	1.7626102485445772	0.28851481315356897	0.7490037939891623	1.7777447711323138	0.24159182367936272	0.9529403132338308	1.749165774122916	0.0038492804249725594	0.6916387486304146	0.8619448465518624	0.029014287637827468	0.7303743698167932	1.2767665947411024	0.049122359435472156	0.8777768562646098	1.7049437128007556	0.03025616256862719	0.7607665529181101	1.7971425041853817	-0.015717123663139043	0.7350300667127293	1.7503312044191621	0.06770550087583974	0.984047747608064	1.7612345387976531	0.056841403192498155	0.4618562361965315	0.2996974863363924	0.076755736985085	0.23534527102610964	0.06926854850017843	0.07562656035637115	0.271660391114117	0.23839226706556732	0.22176855745793325	0.42882586149462626	0.3332968869507734	0.253561376455485	0.4623411126965537	0.5719290888716432	0.2612816528037435	0.2104167502840361	0.7563985443294592	0.24634477529153886	0.05406692026569157	0.8064856788428885	0.2517941232588582	0.041481527575120504	0.8226408302481567	0.26679417429284497	0.16998021558338475	0.8384892482393183	-0.09899505298154535	0.5116875002705527	0.3470181058305271	-0.10402286627455364	0.6235321811905137	0.617598654769832	-0.044955676265984186	0.5131037571222175	0.8367933787425956	2.9073026791655904e-05	0.4749935253068972	0.9203391721898847	-0.023300594548522725	0.441813641518103	0.9500395900381057	-0.0337145803064948	0.49680508209327606	0.9618396416033068
184	3.1186440677966103	0.21649149774143947	0.6913642692826028	0.8526162475975263	0.2558688172621993	0.7291616837372958	1.2763793564137353	0.261756371151185	0.8737903991250221	1.6971188706951155	0.21888234900731568	0.6824892494634275	1.7625227309438771	0.28826017655187336	0.7499826776233586	1.7738195138664619	0.24535723928670045	0.9542095139371765	1.7496259472597577	0.003829075337195415	0.6917068076591544	0.8619887681420918	0.02966866666217308	0.7329707286913336	1.2816096958212435	0.04998048557901329	0.8810296199118235	1.710326367171599	0.030285605762141548	0.760649294722082	1.7971044431127787	-0.016387297913558495	0.7321357385712313	1.7451690260542845	0.06770699949530956	0.983795923313404	1.7610622386336747	0.056747103766603274	0.4601996617309366	0.29606626726532237	0.07682902153759259	0.23547001888074834	0.06920982170899509	0.07561956389916726	0.2716461633590677	0.23520141893201385	0.22200350136046412	0.42808000956446246	0.3298731533162778	0.2454422659958355	0.4491652238332361	0.5685091020344029	0.26131890422290033	0.21033602726012776	0.7564703770494082	0.24956674586704033	0.04408672984011254	0.8061219445381473	0.25208002539392343	0.041524957649871595	0.822699719776809	0.27028085910108707	0.16986429976785694	0.8388173758672038	-0.09894967738145316	0.5116845606351982	0.34689059596478033	-0.10392196875326248	0.6233024028294003	0.6175911866285627	-0.044938307717259825	0.5131106804708532	0.8368076659393615	-0.00022797621200856838	0.4747900067141006	0.920427645781726	-0.023189364492318985	0.4419421428623655	0.9502277800788175	-0.033407476056362524	0.4992880326850007	0.9662727664128984
185	3.135593220338983	0.21657008166516886	0.6913975362438931	0.8525883651131172	0.2567002894423756	0.7319932117241248	1.2814818553251244	0.26161127793141586	0.874988410670933	1.6936831966527757	0.21889281083580614	0.6823113414780638	1.7625314998854986	0.28829368918149867	0.7498142989622048	1.7738321401267334	0.24261398149910884	0.957222206385603	1.7520793863207886	0.0038436401718954906	0.6919155444782258	0.8619220975681074	0.029629716833837343	0.7330708204418138	1.2816627518552608	0.04839753522897125	0.884154348625416	1.711900057389484	0.03551272841645157	0.7444793226408224	1.7910549588019826	-0.015676776350603105	0.7350116885114012	1.7505185642440724	0.06079180903932324	1.0051739819752872	1.7733922111666292	0.05688313402917883	0.4619542430665108	0.29944413535980374	0.07992082608596521	0.2362599161116193	0.06914389028315765	0.07564541558460935	0.2717417923624931	0.2351262248489982	0.2220133494975	0.4279108014569166	0.3298642097508795	0.24552351491365196	0.44954479194128116	0.5717974534097198	0.2615306114970743	0.2102821579950581	0.756561713936447	0.2498340873462792	0.04301026026888174	0.8093679656947288	0.25229049511165486	0.04095939750130131	0.8260208617427339	0.27760805482877404	0.15863068907879227	0.8406755665475503	-0.09895067437357868	0.5118118164122364	0.34678480812557144	-0.0986835434959289	0.6101567591088377	0.6174469699832313	-0.04496179738712527	0.5130109270411906	0.8367574634081442	-9.722209880475272e-05	0.4751520980772473	0.9205757161638117	-0.025925625566047942	0.42869567383458684	0.9485563730322975	-0.03358622153131519	0.49969145013980465	0.961988593248657
186	3.152542372881356	0.2164823644879182	0.6911031949240211	0.8524858137261199	0.2608876867634287	0.7329163561120973	1.2818709148060818	0.2617238125679608	0.8738306135903892	1.6972053674656347	0.21887617255507216	0.6825569338190522	1.7625001426452402	0.28725337991328714	0.7473612682136098	1.768787492667294	0.2424711075925175	0.957050964936488	1.751914708544532	0.0037483919538255574	0.6919245878221769	0.8618156752889823	0.026013680921960436	0.7163307838196586	1.2739178680044683	0.04975273248367637	0.882447519544168	1.7066149736325156	0.035257564849620865	0.7457843400888214	1.7871047436838248	-0.01568588831909226	0.7350057570956955	1.7505024650088545	0.0676729088457049	0.9837827816446825	1.761120484911229	0.057045313796860286	0.4595130473878838	0.2925709601356453	0.07996103874386686	0.23634876011729306	0.06911185394714586	0.07557746123204585	0.2715559919866212	0.2350334721771668	0.218637219391011	0.4162695645841188	0.3308279235993499	0.2454946110756325	0.44741993794089174	0.5683728735027631	0.26165046678300996	0.21011135954574972	0.7566657132081892	0.25380962730382833	0.04556479645244056	0.8126649621108357	0.25560256025994244	0.05092840147184054	0.8300273369408673	0.2857167935351808	0.1389118600664216	0.8431444332477933	-0.0989702305752924	0.5117673099227595	0.3466925936565671	-0.09859658055223142	0.6100435057706128	0.6175143145921141	-0.0449470009025636	0.5127348402296182	0.8367918873566209	-0.0002004954309276836	0.4748838091636872	0.9207410902631697	-0.02575933061786884	0.4289427122104943	0.949421948514541	-0.03332181541261432	0.49872159132653265	0.9669305366901889
